<svg width="24" height="24" viewBox="0 0 24 24" fill="none" xmlns="http://www.w3.org/2000/svg">
<path fill-rule="evenodd" clip-rule="evenodd" d="M8.00236 7.60847C9.69502 7.60847 11.0601 8.98666 11.0601 10.6779C11.0601 11.6856 10.5754 12.5822 9.8255 13.1423C10.1753 13.3252 10.4961 13.56 10.7766 13.8395C11.1412 14.2027 11.4306 14.6341 11.6281 15.1091C11.8256 15.5841 11.9273 16.0933 11.9273 16.6076H10.3119C10.3119 16.3063 10.2523 16.0078 10.1365 15.7292C10.0207 15.4507 9.85086 15.1974 9.63655 14.9839C9.42223 14.7704 9.16762 14.6008 8.8872 14.4851C8.61554 14.373 8.32489 14.3136 8.03087 14.31L8.0024 14.3098C7.6987 14.3098 7.39804 14.3694 7.11761 14.4851C6.83719 14.6008 6.58258 14.7704 6.36826 14.9839C6.15395 15.1974 5.9841 15.4507 5.86829 15.7292C5.75247 16.0078 5.69291 16.3063 5.69291 16.6076H4.07752C4.07752 16.0933 4.17922 15.5841 4.37671 15.1091C4.5742 14.6341 4.86358 14.2027 5.22818 13.8395C5.50865 13.5601 5.82944 13.3252 6.17921 13.1423C5.42935 12.5822 4.94467 11.6856 4.94467 10.6779C4.94467 8.98667 6.30969 7.60848 8.00236 7.60847ZM8.00236 9.22386C7.20974 9.22386 6.56005 9.8709 6.56005 10.6779C6.56006 11.4849 7.20975 12.1319 8.00236 12.1319C8.79497 12.1319 9.44468 11.4849 9.44468 10.6779C9.44468 9.87089 8.79497 9.22386 8.00236 9.22386Z" fill="#0C0C0C" style="fill:#0C0C0C;fill:color(display-p3 0.0471 0.0471 0.0471);fill-opacity:1;"/>
<path d="M18.1112 14.6505H13.265V13.0352H18.1112V14.6505Z" fill="#0C0C0C" style="fill:#0C0C0C;fill:color(display-p3 0.0471 0.0471 0.0471);fill-opacity:1;"/>
<path d="M19.6256 10.9654H13.265V9.35006H19.6256V10.9654Z" fill="#0C0C0C" style="fill:#0C0C0C;fill:color(display-p3 0.0471 0.0471 0.0471);fill-opacity:1;"/>
<path fill-rule="evenodd" clip-rule="evenodd" d="M20.4838 3.51953C22.045 3.51953 23.3107 4.78519 23.3107 6.34645V17.6541C23.3107 19.2154 22.045 20.4811 20.4838 20.4811H3.52224C1.97316 20.4811 0.715093 19.2351 0.695534 17.6907L0.695312 17.6541V6.34645C0.695312 4.78519 1.96097 3.51953 3.52224 3.51953H20.4838ZM3.52224 5.13492C2.85312 5.13492 2.3107 5.67734 2.3107 6.34645V17.6541L2.3108 17.6698C2.31918 18.3317 2.85835 18.8657 3.52224 18.8657H20.4838C21.1529 18.8657 21.6953 18.3233 21.6953 17.6541V6.34645C21.6953 5.67734 21.1529 5.13492 20.4838 5.13492H3.52224Z" fill="#0C0C0C" style="fill:#0C0C0C;fill:color(display-p3 0.0471 0.0471 0.0471);fill-opacity:1;"/>
</svg>
