<svg width="24" height="24" viewBox="0 0 24 24" fill="none" xmlns="http://www.w3.org/2000/svg">
<path fill-rule="evenodd" clip-rule="evenodd" d="M12.0031 8.19254C9.90022 8.19254 8.19545 9.8973 8.19545 12.0002C8.19545 14.1032 9.90022 15.8079 12.0031 15.8079C14.1061 15.8079 15.8108 14.1032 15.8108 12.0002C15.8108 9.8973 14.1061 8.19254 12.0031 8.19254ZM9.81084 12.0002C9.81084 10.7895 10.7924 9.80792 12.0031 9.80792C13.2139 9.80792 14.1955 10.7895 14.1955 12.0002C14.1955 13.211 13.2139 14.1925 12.0031 14.1925C10.7924 14.1925 9.81084 13.211 9.81084 12.0002Z" fill="#0C0C0C" style="fill:#0C0C0C;fill:color(display-p3 0.0471 0.0471 0.0471);fill-opacity:1;"/>
<path fill-rule="evenodd" clip-rule="evenodd" d="M5.26477 5.19248C5.25635 5.19235 5.24795 5.19235 5.23957 5.19248H0.69551V9.73142C0.695248 9.74326 0.695246 9.75514 0.69551 9.76706V14.2334C0.695246 14.2453 0.695248 14.2572 0.69551 14.269V18.8079H5.23358C5.24593 18.8082 5.25833 18.8082 5.27077 18.8079H18.7355C18.748 18.8082 18.7604 18.8082 18.7727 18.8079H23.3109V14.2632C23.311 14.2552 23.311 14.2473 23.3109 14.2393V9.76118C23.311 9.7532 23.311 9.74524 23.3109 9.73731V5.19248H18.7667C18.7583 5.19235 18.7499 5.19235 18.7415 5.19248H5.26477ZM5.89048 6.80787H18.1158C18.3725 7.6488 18.8323 8.4177 19.459 9.04436C20.0857 9.67103 20.8546 10.1308 21.6955 10.3876V13.6129C20.8546 13.8696 20.0857 14.3294 19.459 14.9561C18.8324 15.5827 18.3726 16.3516 18.1158 17.1925H5.89045C5.63373 16.3516 5.17393 15.5827 4.54729 14.9561C3.92066 14.3295 3.15179 13.8697 2.31089 13.6129V10.3875C3.15179 10.1308 3.92065 9.671 4.54729 9.04436C5.17396 8.4177 5.63377 7.6488 5.89048 6.80787ZM2.31089 8.66324V6.80787H4.16622C3.98054 7.21256 3.72358 7.58358 3.40504 7.90211C3.08654 8.22062 2.71555 8.47757 2.31089 8.66324ZM3.40504 16.0983C3.72354 16.4169 3.98049 16.7878 4.16616 17.1925H2.31089V15.3372C2.71555 15.5229 3.08654 15.7798 3.40504 16.0983ZM21.6955 15.3372V17.1925H19.8401C20.0258 16.7878 20.2828 16.4168 20.6012 16.0983C20.9198 15.7798 21.2908 15.5229 21.6955 15.3372ZM21.6955 6.80787H19.8401C20.0258 7.21256 20.2827 7.58358 20.6012 7.90211C20.9198 8.22065 21.2908 8.47761 21.6955 8.66329V6.80787Z" fill="#0C0C0C" style="fill:#0C0C0C;fill:color(display-p3 0.0471 0.0471 0.0471);fill-opacity:1;"/>
</svg>
