<svg width="24" height="24" viewBox="0 0 24 24" fill="none" xmlns="http://www.w3.org/2000/svg">
<path fill-rule="evenodd" clip-rule="evenodd" d="M19.8468 5.35953C19.8468 4.46737 19.1235 3.74414 18.2314 3.74414H4.82873C3.43474 3.74414 2.30469 4.87419 2.30469 6.26818V8.13597C2.30469 9.52996 3.43474 10.66 4.82873 10.66H6.26743V12.7297C6.26743 15.5177 8.52753 17.7778 11.3155 17.7778H14.7987C17.5867 17.7778 19.8468 15.5177 19.8468 12.7297V5.35953ZM6.26743 9.04462V5.35953H4.82873C4.32689 5.35953 3.92007 5.76634 3.92007 6.26818V8.13597C3.92007 8.6378 4.32689 9.04462 4.82873 9.04462H6.26743ZM7.88281 5.35953H18.2314V12.7297C18.2314 14.6255 16.6945 16.1624 14.7987 16.1624H11.3155C9.41968 16.1624 7.88281 14.6255 7.88281 12.7297V5.35953Z" fill="#0C0C0C" style="fill:#0C0C0C;fill:color(display-p3 0.0471 0.0471 0.0471);fill-opacity:1;"/>
<path d="M4.42488 20.0242L21.6893 20.0242V21.6396L4.42488 21.6396V20.0242Z" fill="#0C0C0C" style="fill:#0C0C0C;fill:color(display-p3 0.0471 0.0471 0.0471);fill-opacity:1;"/>
</svg>
